<?xml version="1.0" standalone="no"?>
<!DOCTYPE svg PUBLIC "-//W3C//DTD SVG 20010904//EN"
 "http://www.w3.org/TR/2001/REC-SVG-20010904/DTD/svg10.dtd">
<svg version="1.0" xmlns="http://www.w3.org/2000/svg"
 width="512.000000pt" height="512.000000pt" viewBox="0 0 512.000000 512.000000"
 preserveAspectRatio="xMidYMid meet">

<g transform="translate(0.000000,512.000000) scale(0.100000,-0.100000)"
fill="#000000" stroke="none">
<path d="M2400 5009 c-741 -36 -1466 -455 -1885 -1088 -206 -312 -326 -625
-386 -1002 -26 -161 -31 -505 -10 -659 98 -727 489 -1358 1085 -1752 1093
-723 2565 -461 3341 596 234 318 389 697 452 1106 22 144 25 528 4 665 -66
448 -219 818 -485 1175 -79 107 -302 335 -416 427 -189 152 -457 303 -687 388
-321 117 -640 163 -1013 144z m550 -172 c844 -148 1528 -731 1800 -1535 86
-255 121 -467 121 -745 0 -630 -231 -1188 -675 -1632 -264 -264 -562 -449
-905 -562 -251 -83 -445 -113 -731 -113 -384 0 -690 71 -1029 238 -709 349
-1192 1051 -1272 1847 -16 160 -6 445 20 600 80 469 294 893 619 1229 378 389
847 621 1396 691 173 22 473 14 656 -18z"/>
</g>
</svg>
